<svg width="50" height="51" viewBox="0 0 50 51" fill="none" xmlns="http://www.w3.org/2000/svg">
<path d="M25 -2.39858e-05C20.8887 -2.38053e-05 16.8409 1.01836 13.2151 2.96491C9.58924 4.91146 6.49735 7.72611 4.21325 11.1595C1.92915 14.5929 0.523355 18.5391 0.12038 22.6486C-0.282594 26.758 0.329693 30.9039 1.90301 34.7189C3.47632 38.5339 5.9621 41.9003 9.14015 44.5199C12.3182 47.1396 16.0904 48.9315 20.1227 49.7371C24.155 50.5427 28.3228 50.3371 32.2571 49.1384C36.1913 47.9397 39.7705 45.785 42.6776 42.8651L25 25.1098L25 -2.39858e-05Z" fill="#293F5F"/>
<path d="M42.7452 38.7496C45.9526 35.5412 47.9419 31.3072 48.3684 26.7808C48.795 22.2544 47.6321 17.7207 45.081 13.9648L29.0566 24.9448L42.7452 38.7496Z" fill="#34BAB4"/>
<ellipse cx="35.2272" cy="10.2722" rx="6.33116" ry="6.35898" fill="#EBB723"/>
<ellipse cx="37.0131" cy="8.47872" rx="1.2987" ry="1.30441" fill="white"/>
<path fill-rule="evenodd" clip-rule="evenodd" d="M12.8671 47.0643C13.9892 44.4291 14.6103 41.5274 14.6103 38.48C14.6103 29.2918 8.96352 21.4283 0.965359 18.1995C0.552268 19.6489 0.268548 21.1377 0.120388 22.6486C-0.282587 26.7581 0.329701 30.9039 1.90301 34.7189C3.47633 38.5339 5.96211 41.9003 9.14016 44.5199C10.3078 45.4824 11.5556 46.3331 12.8671 47.0643Z" fill="#24A59F"/>
<path fill-rule="evenodd" clip-rule="evenodd" d="M0.0765129 23.1469C-0.231543 27.0925 0.393266 31.058 1.90301 34.7189C3.41246 38.379 5.76179 41.6263 8.75655 44.1972C9.39333 42.411 9.74019 40.4862 9.74019 38.48C9.74019 31.7091 5.78919 25.8651 0.0765129 23.1469Z" fill="#34BAB4"/>
</svg>
