<svg width="148" height="51" viewBox="0 0 148 51" fill="none" xmlns="http://www.w3.org/2000/svg">
<path d="M25 -2.39858e-05C20.8887 -2.38053e-05 16.8409 1.01836 13.2151 2.96491C9.58924 4.91146 6.49735 7.72611 4.21325 11.1595C1.92915 14.5929 0.523355 18.5391 0.12038 22.6486C-0.282594 26.758 0.329693 30.9039 1.90301 34.7189C3.47632 38.5339 5.9621 41.9003 9.14015 44.5199C12.3182 47.1396 16.0904 48.9315 20.1227 49.7371C24.155 50.5427 28.3228 50.3371 32.2571 49.1384C36.1913 47.9397 39.7705 45.785 42.6776 42.8651L25 25.1098L25 -2.39858e-05Z" fill="#293F5F"/>
<path d="M42.7452 38.7496C45.9526 35.5412 47.9419 31.3072 48.3684 26.7808C48.795 22.2544 47.6321 17.7207 45.081 13.9648L29.0566 24.9448L42.7452 38.7496Z" fill="#34BAB4"/>
<ellipse cx="35.2272" cy="10.2722" rx="6.33116" ry="6.35898" fill="#EBB723"/>
<ellipse cx="37.0131" cy="8.47872" rx="1.2987" ry="1.30441" fill="white"/>
<path fill-rule="evenodd" clip-rule="evenodd" d="M12.8671 47.0643C13.9892 44.4291 14.6103 41.5274 14.6103 38.48C14.6103 29.2918 8.96352 21.4283 0.965359 18.1995C0.552268 19.6489 0.268548 21.1377 0.120388 22.6486C-0.282587 26.7581 0.329701 30.9039 1.90301 34.7189C3.47633 38.5339 5.96211 41.9003 9.14016 44.5199C10.3078 45.4824 11.5556 46.3331 12.8671 47.0643Z" fill="#24A59F"/>
<path fill-rule="evenodd" clip-rule="evenodd" d="M0.0765129 23.1469C-0.231543 27.0925 0.393266 31.058 1.90301 34.7189C3.41246 38.379 5.76179 41.6263 8.75655 44.1972C9.39333 42.411 9.74019 40.4862 9.74019 38.48C9.74019 31.7091 5.78919 25.8651 0.0765129 23.1469Z" fill="#34BAB4"/>
<path d="M64.5 22V10.552H60.072V9.4H70.26V10.552H65.832V22H64.5ZM84.3039 9.4H85.6179V22H84.3039V9.4ZM76.4199 22H75.0879V9.4H76.4199V22ZM84.4299 16.186H76.2759V15.016H84.4299V16.186ZM97.9385 22.108C96.9905 22.108 96.1085 21.952 95.2925 21.64C94.4885 21.316 93.7865 20.866 93.1865 20.29C92.5985 19.702 92.1365 19.024 91.8005 18.256C91.4765 17.476 91.3145 16.624 91.3145 15.7C91.3145 14.776 91.4765 13.93 91.8005 13.162C92.1365 12.382 92.5985 11.704 93.1865 11.128C93.7865 10.54 94.4885 10.09 95.2925 9.778C96.0965 9.454 96.9785 9.292 97.9385 9.292C98.8865 9.292 99.7625 9.454 100.567 9.778C101.371 10.09 102.067 10.534 102.655 11.11C103.255 11.686 103.717 12.364 104.041 13.144C104.377 13.924 104.545 14.776 104.545 15.7C104.545 16.624 104.377 17.476 104.041 18.256C103.717 19.036 103.255 19.714 102.655 20.29C102.067 20.866 101.371 21.316 100.567 21.64C99.7625 21.952 98.8865 22.108 97.9385 22.108ZM97.9385 20.92C98.6945 20.92 99.3905 20.794 100.027 20.542C100.675 20.278 101.233 19.912 101.701 19.444C102.181 18.964 102.553 18.412 102.817 17.788C103.081 17.152 103.213 16.456 103.213 15.7C103.213 14.944 103.081 14.254 102.817 13.63C102.553 12.994 102.181 12.442 101.701 11.974C101.233 11.494 100.675 11.128 100.027 10.876C99.3905 10.612 98.6945 10.48 97.9385 10.48C97.1825 10.48 96.4805 10.612 95.8325 10.876C95.1845 11.128 94.6205 11.494 94.1405 11.974C93.6725 12.442 93.3005 12.994 93.0245 13.63C92.7605 14.254 92.6285 14.944 92.6285 15.7C92.6285 16.444 92.7605 17.134 93.0245 17.77C93.3005 18.406 93.6725 18.964 94.1405 19.444C94.6205 19.912 95.1845 20.278 95.8325 20.542C96.4805 20.794 97.1825 20.92 97.9385 20.92ZM110.23 22V9.4H111.328L120.022 20.344H119.446V9.4H120.76V22H119.662L110.986 11.056H111.562V22H110.23ZM133.099 22.108C132.139 22.108 131.251 21.952 130.435 21.64C129.631 21.316 128.929 20.866 128.329 20.29C127.741 19.714 127.279 19.036 126.943 18.256C126.619 17.476 126.457 16.624 126.457 15.7C126.457 14.776 126.619 13.924 126.943 13.144C127.279 12.364 127.747 11.686 128.347 11.11C128.947 10.534 129.649 10.09 130.453 9.778C131.269 9.454 132.157 9.292 133.117 9.292C134.077 9.292 134.953 9.442 135.745 9.742C136.549 10.042 137.233 10.498 137.797 11.11L136.969 11.956C136.441 11.428 135.859 11.05 135.223 10.822C134.587 10.594 133.903 10.48 133.171 10.48C132.391 10.48 131.671 10.612 131.011 10.876C130.363 11.128 129.793 11.494 129.301 11.974C128.821 12.442 128.443 12.994 128.167 13.63C127.903 14.254 127.771 14.944 127.771 15.7C127.771 16.444 127.903 17.134 128.167 17.77C128.443 18.406 128.821 18.964 129.301 19.444C129.793 19.912 130.363 20.278 131.011 20.542C131.671 20.794 132.385 20.92 133.153 20.92C133.873 20.92 134.551 20.812 135.187 20.596C135.835 20.38 136.429 20.014 136.969 19.498L137.725 20.506C137.125 21.034 136.423 21.436 135.619 21.712C134.815 21.976 133.975 22.108 133.099 22.108ZM136.447 20.344V15.7H137.725V20.506L136.447 20.344Z" fill="#132237"/>
<path d="M67.542 44.9999C66.546 44.9999 65.622 44.8439 64.77 44.5319C63.93 44.2079 63.198 43.7519 62.574 43.1639C61.962 42.5759 61.482 41.8859 61.134 41.0939C60.786 40.2899 60.612 39.4079 60.612 38.4479C60.612 37.4879 60.786 36.6119 61.134 35.8199C61.482 35.0159 61.962 34.3199 62.574 33.7319C63.198 33.1439 63.93 32.6939 64.77 32.3819C65.622 32.0579 66.546 31.8959 67.542 31.8959C68.706 31.8959 69.744 32.0999 70.656 32.5079C71.58 32.9159 72.348 33.5039 72.96 34.2719L70.692 36.3239C70.284 35.8439 69.834 35.4779 69.342 35.2259C68.862 34.9739 68.322 34.8479 67.722 34.8479C67.206 34.8479 66.732 34.9319 66.3 35.0999C65.868 35.2679 65.496 35.5139 65.184 35.8379C64.884 36.1499 64.644 36.5279 64.464 36.9719C64.296 37.4159 64.212 37.9079 64.212 38.4479C64.212 38.9879 64.296 39.4799 64.464 39.9239C64.644 40.3679 64.884 40.7519 65.184 41.0759C65.496 41.3879 65.868 41.6279 66.3 41.7959C66.732 41.9639 67.206 42.0479 67.722 42.0479C68.322 42.0479 68.862 41.9219 69.342 41.6699C69.834 41.4179 70.284 41.0519 70.692 40.5719L72.96 42.6239C72.348 43.3799 71.58 43.9679 70.656 44.3879C69.744 44.7959 68.706 44.9999 67.542 44.9999ZM75.5261 44.7479L81.0881 32.1479H84.5981L90.1781 44.7479H86.4701L82.1141 33.8939H83.5181L79.1621 44.7479H75.5261ZM78.5681 42.2999L79.4861 39.6719H85.6421L86.5601 42.2999H78.5681ZM93.8885 44.7479V32.1479H96.8225L102.043 40.7159H100.495L105.571 32.1479H108.505L108.541 44.7479H105.265L105.229 37.1339H105.787L101.989 43.5059H100.405L96.4985 37.1339H97.1825V44.7479H93.8885Z" fill="#EBB723"/>
</svg>
