<svg width="334" height="168" viewBox="0 0 334 168" fill="none" xmlns="http://www.w3.org/2000/svg">
<path d="M311.267 167.037C311.267 148.092 307.535 129.332 300.285 111.828C293.035 94.3252 282.409 78.4213 269.012 65.0249C255.616 51.6285 239.712 41.0018 222.209 33.7517C204.705 26.5017 185.945 22.7701 167 22.7701C148.055 22.7701 129.295 26.5017 111.791 33.7517C94.2882 41.0018 78.3844 51.6285 64.9879 65.0249C51.5915 78.4213 40.9649 94.3252 33.7148 111.828C26.4647 129.332 22.7331 148.092 22.7331 167.037H42.9305C42.9305 150.744 46.1397 134.61 52.3747 119.558C58.6098 104.505 67.7487 90.8275 79.2696 79.3066C90.7906 67.7857 104.468 58.6468 119.521 52.4117C134.574 46.1766 150.707 42.9674 167 42.9674C183.293 42.9674 199.427 46.1766 214.479 52.4117C229.532 58.6468 243.21 67.7856 254.73 79.3066C266.251 90.8275 275.39 104.505 281.625 119.558C287.86 134.61 291.07 150.744 291.07 167.037H311.267Z" fill="#198F8A"/>
<path d="M334 167.037C334 145.106 329.68 123.39 321.288 103.129C312.895 82.8675 300.594 64.4576 285.087 48.9502C269.579 33.4429 251.17 21.1417 230.908 12.7492C210.647 4.35669 188.931 0.0371084 167 0.0371094C145.069 0.0371103 123.353 4.35669 103.092 12.7492C82.8306 21.1418 64.4207 33.4429 48.9133 48.9503C33.4059 64.4576 21.1048 82.8676 12.7123 103.129C4.31974 123.39 0.000165929 145.106 0.000167847 167.037H22.7049C22.7049 148.088 26.4372 129.324 33.6887 111.818C40.9402 94.3109 51.5689 78.404 64.968 65.0049C78.367 51.6059 94.274 40.9772 111.781 33.7256C129.287 26.4741 148.051 22.7418 167 22.7418C185.949 22.7418 204.713 26.4741 222.219 33.7256C239.726 40.9771 255.633 51.6059 269.032 65.0049C282.431 78.4039 293.06 94.3109 300.311 111.818C307.563 129.324 311.295 148.088 311.295 167.037H334Z" fill="#34BAB4"/>
<path d="M291.594 167.256C291.594 150.865 288.372 134.635 282.11 119.492C275.849 104.349 266.671 90.5896 255.101 78.9996C243.532 67.4097 229.797 58.2161 214.68 51.9436C199.564 45.6712 183.362 42.4428 167 42.4428C150.638 42.4428 134.436 45.6712 119.32 51.9436C104.203 58.2161 90.4683 67.4097 78.8987 78.9997C67.329 90.5896 58.1515 104.349 51.8901 119.492C45.6286 134.635 42.4059 150.865 42.4059 167.256H54.8653C54.8653 152.504 57.7658 137.897 63.4011 124.268C69.0364 110.64 77.2962 98.2562 87.7088 87.8252C98.1215 77.3943 110.483 69.12 124.088 63.4748C137.693 57.8297 152.274 54.9241 167 54.9241C181.726 54.9241 196.307 57.8297 209.912 63.4748C223.517 69.12 235.879 77.3943 246.291 87.8252C256.704 98.2562 264.964 110.64 270.599 124.268C276.234 137.897 279.135 152.504 279.135 167.256H291.594Z" fill="#293F5F"/>
</svg>
