<svg width="421" height="422" viewBox="0 0 421 422" fill="none" xmlns="http://www.w3.org/2000/svg">
<path d="M210.5 31.2197C309.635 31.2197 390 111.585 390 210.72C390 309.855 309.635 390.22 210.5 390.22C111.365 390.22 31.0002 309.855 31.0002 210.72C31.0002 111.585 111.365 31.2197 210.5 31.2197ZM210.5 359.09C292.443 359.09 358.87 292.662 358.87 210.72C358.87 128.777 292.443 62.3495 210.5 62.3495C128.558 62.3495 62.13 128.777 62.13 210.72C62.13 292.662 128.558 359.09 210.5 359.09Z" fill="#198F8A"/>
<path d="M210.5 0.219663C326.756 0.219678 421 94.4638 421 210.72C421 326.976 326.756 421.22 210.5 421.22C94.2441 421.22 4.28762e-05 326.976 5.81213e-05 210.72C7.33664e-05 94.4637 94.2441 0.219647 210.5 0.219663ZM210.5 390.072C309.554 390.072 389.852 309.773 389.852 210.72C389.852 111.666 309.554 31.3673 210.5 31.3673C111.446 31.3673 31.1477 111.666 31.1477 210.72C31.1477 309.773 111.446 390.072 210.5 390.072Z" fill="#34BAB4"/>
<path d="M210 62.2197C292.291 62.2197 359 128.705 359 210.72C359 292.734 292.291 359.22 210 359.22C127.71 359.22 61.0002 292.734 61.0002 210.72C61.0002 128.705 127.71 62.2197 210 62.2197ZM210 335.162C278.959 335.162 334.862 279.447 334.862 210.72C334.862 141.992 278.959 86.2772 210 86.2772C141.041 86.2772 85.1387 141.992 85.1387 210.72C85.1387 279.447 141.041 335.162 210 335.162Z" fill="#293F5F"/>
</svg>
