<svg width="60" height="52" viewBox="0 0 60 52" fill="none" xmlns="http://www.w3.org/2000/svg">
<path d="M60.0001 48.511C60.0001 44.5714 59.2241 40.6703 57.7164 37.0305C56.2088 33.3908 53.999 30.0836 51.2133 27.2978C48.4275 24.5121 45.1203 22.3023 41.4806 20.7947C37.8408 19.287 33.9397 18.511 30.0001 18.511C26.0604 18.511 22.1593 19.287 18.5196 20.7947C14.8798 22.3023 11.5726 24.5121 8.78686 27.2978C6.0011 30.0836 3.79132 33.3908 2.28367 37.0305C0.776033 40.6703 6.06907e-05 44.5714 6.10352e-05 48.511L60.0001 48.511Z" fill="#293F5F"/>
<path d="M30.0501 14.0927C31.1192 13.4755 32.3318 13.1506 33.5662 13.1506C34.8007 13.1506 36.0133 13.4755 37.0824 14.0927C38.1514 14.71 39.0391 15.5977 39.6564 16.6667C40.2736 17.7358 40.5985 18.9484 40.5985 20.1829L33.5662 20.1829L30.0501 14.0927Z" fill="#34BAB4" fill-opacity="0.8"/>
<path d="M20.6251 42.0706C17.7748 40.4249 15.4078 38.058 13.7621 35.2076C12.1165 32.3572 11.2501 29.1239 11.2501 25.8326C11.2501 22.5413 12.1165 19.3079 13.7621 16.4576C15.4078 13.6072 17.7748 11.2403 20.6251 9.59461L30.0001 25.8326L20.6251 42.0706Z" fill="#34BAB4" fill-opacity="0.8"/>
<path d="M47.3017 29.9957C47.246 32.4018 46.558 34.7509 45.3067 36.8068C44.0554 38.8627 42.285 40.553 40.1734 41.7078C38.0618 42.8627 35.6834 43.4413 33.2773 43.3856C30.8711 43.3299 28.5221 42.6419 26.4662 41.3906L33.5945 29.6784L47.3017 29.9957Z" fill="#34BAB4" fill-opacity="0.8"/>
<path d="M22.104 37.2196V35.6516H24.536C24.9413 35.6516 25.2933 35.5983 25.592 35.4916C25.8907 35.3636 26.1147 35.1503 26.264 34.8516C26.4347 34.5316 26.52 34.0836 26.52 33.5076V17.1556C25.9867 17.8169 25.4853 18.4036 25.016 18.9156C24.5467 19.4063 24.0987 19.7903 23.672 20.0676C23.2453 20.3449 22.8187 20.4836 22.392 20.4836C21.9013 20.4836 21.4853 20.2916 21.144 19.9076C20.8027 19.5236 20.632 19.0116 20.632 18.3716C21.0587 18.2649 21.5067 18.1263 21.976 17.9556C22.4667 17.7636 22.9893 17.5076 23.544 17.1876C24.12 16.8463 24.76 16.4196 25.464 15.9076L27.704 14.2436H30.712V33.5076C30.712 34.0196 30.776 34.4356 30.904 34.7556C31.0533 35.0756 31.2773 35.3103 31.576 35.4596C31.8747 35.5876 32.2587 35.6516 32.728 35.6516H34.904V37.2196H22.104ZM41.291 37.4756C40.651 37.4756 40.0963 37.2943 39.627 36.9316C39.1577 36.5689 38.923 35.9396 38.923 35.0436C38.923 34.1263 39.1577 33.4969 39.627 33.1556C40.0963 32.8143 40.6617 32.6436 41.323 32.6436C41.963 32.6436 42.5177 32.8143 42.987 33.1556C43.4563 33.4969 43.691 34.1263 43.691 35.0436C43.691 35.9609 43.4563 36.6009 42.987 36.9636C42.5177 37.3049 41.9523 37.4756 41.291 37.4756Z" fill="#EBB723"/>
</svg>
