<svg width="73" height="63" viewBox="0 0 73 63" fill="none" xmlns="http://www.w3.org/2000/svg">
<path d="M73 59.2004C73 54.4072 72.0559 49.6609 70.2216 45.2325C68.3873 40.8041 65.6987 36.7804 62.3094 33.391C58.9201 30.0017 54.8963 27.3131 50.468 25.4788C46.0396 23.6445 41.2933 22.7004 36.5 22.7004C31.7068 22.7004 26.9604 23.6445 22.5321 25.4788C18.1037 27.3131 14.0799 30.0017 10.6906 33.391C7.30126 36.7804 4.61269 40.8041 2.7784 45.2325C0.9441 49.6609 -4.19039e-07 54.4072 0 59.2005L73 59.2004Z" fill="#293F5F"/>
<path d="M36.5609 17.3246C37.8616 16.5737 39.337 16.1784 40.8389 16.1784C42.3408 16.1784 43.8162 16.5737 45.1169 17.3246C46.4175 18.0756 47.4976 19.1557 48.2485 20.4563C48.9995 21.757 49.3948 23.2324 49.3948 24.7343L40.8389 24.7343L36.5609 17.3246Z" fill="#34BAB4" fill-opacity="0.8"/>
<path d="M25.0938 51.3645C21.6259 49.3623 18.7461 46.4825 16.7439 43.0145C14.7417 39.5466 13.6876 35.6127 13.6876 31.6083C13.6876 27.6038 14.7417 23.67 16.7439 20.202C18.7461 16.7341 21.6259 13.8543 25.0939 11.8521L36.5001 31.6083L25.0938 51.3645Z" fill="#34BAB4" fill-opacity="0.8"/>
<path d="M57.5504 36.6735C57.4827 39.601 56.6455 42.459 55.1231 44.9604C53.6007 47.4617 51.4467 49.5183 48.8776 50.9233C46.3085 52.3284 43.4148 53.0324 40.4873 52.9646C37.5599 52.8969 34.7019 52.0597 32.2005 50.5373L40.8733 36.2875L57.5504 36.6735Z" fill="#34BAB4" fill-opacity="0.8"/>
</svg>
