<svg width="73" height="49" viewBox="0 0 73 49" fill="none" xmlns="http://www.w3.org/2000/svg">
<path d="M73 48.5251C73 43.7318 72.0559 38.9855 70.2216 34.5571C68.3873 30.1288 65.6987 26.105 62.3094 22.7157C58.9201 19.3263 54.8963 16.6378 50.468 14.8035C46.0396 12.9692 41.2933 12.0251 36.5 12.0251C31.7068 12.0251 26.9604 12.9692 22.5321 14.8035C18.1037 16.6378 14.0799 19.3263 10.6906 22.7157C7.30126 26.105 4.61269 30.1288 2.7784 34.5571C0.9441 38.9855 -4.19039e-07 43.7318 0 48.5251H73Z" fill="#293F5F"/>
<path d="M36.561 6.64946C37.8616 5.89853 39.337 5.50319 40.8389 5.50319C42.3408 5.50319 43.8162 5.89853 45.1169 6.64946C46.4175 7.4004 47.4976 8.48048 48.2486 9.78115C48.9995 11.0818 49.3948 12.5572 49.3948 14.0591L40.8389 14.0591L36.561 6.64946Z" fill="#34BAB4" fill-opacity="0.8"/>
<path d="M25.0938 40.6892C21.6259 38.687 18.7461 35.8072 16.7439 32.3392C14.7417 28.8713 13.6876 24.9374 13.6876 20.933C13.6876 16.9285 14.7417 12.9947 16.7439 9.52672C18.7461 6.05878 21.6259 3.17897 25.0938 1.17676L36.5001 20.933L25.0938 40.6892Z" fill="#34BAB4" fill-opacity="0.8"/>
<path d="M57.5505 25.9981C57.4827 28.9256 56.6456 31.7836 55.1232 34.285C53.6008 36.7863 51.4468 38.8429 48.8776 40.2479C46.3085 41.653 43.4148 42.357 40.4874 42.2892C37.5599 42.2215 34.7019 41.3843 32.2005 39.8619L40.8734 25.6121L57.5505 25.9981Z" fill="#34BAB4" fill-opacity="0.8"/>
<path d="M31.84 37.3566C30.304 37.3566 29.0453 37.186 28.064 36.8446C27.104 36.482 26.3893 36.0233 25.92 35.4686C25.472 34.8926 25.248 34.274 25.248 33.6126C25.248 32.866 25.4827 32.3006 25.952 31.9166C26.4427 31.5113 27.0293 31.3086 27.712 31.3086C27.712 32.1406 27.872 32.8553 28.192 33.4526C28.5333 34.05 29.0027 34.5086 29.6 34.8286C30.1973 35.1486 30.9013 35.3086 31.712 35.3086C32.4587 35.3086 33.152 35.1593 33.792 34.8606C34.432 34.562 34.944 34.0606 35.328 33.3566C35.7333 32.6526 35.936 31.682 35.936 30.4446C35.936 29.5913 35.7227 28.8446 35.296 28.2046C34.8907 27.5646 34.2933 27.0633 33.504 26.7006C32.736 26.338 31.7973 26.1566 30.688 26.1566H29.056V24.3006H30.752C31.6693 24.3006 32.4587 24.1086 33.12 23.7246C33.7813 23.3193 34.2827 22.754 34.624 22.0286C34.9867 21.3033 35.168 20.4606 35.168 19.5006C35.168 18.306 34.9333 17.378 34.464 16.7166C33.9947 16.034 33.248 15.6926 32.224 15.6926C31.392 15.6926 30.752 15.9273 30.304 16.3966C29.8773 16.866 29.5787 17.474 29.408 18.2206C29.2587 18.946 29.184 19.7353 29.184 20.5886C28.0747 20.5886 27.1893 20.3966 26.528 20.0126C25.888 19.6073 25.568 18.946 25.568 18.0286C25.568 17.2393 25.824 16.5353 26.336 15.9166C26.848 15.2766 27.6053 14.7753 28.608 14.4126C29.6107 14.05 30.848 13.8686 32.32 13.8686C34.5173 13.8686 36.256 14.3166 37.536 15.2126C38.816 16.1086 39.456 17.378 39.456 19.0206C39.456 19.9806 39.2427 20.8446 38.816 21.6126C38.3893 22.3806 37.8027 23.042 37.056 23.5966C36.3093 24.1513 35.456 24.5673 34.496 24.8446C35.1147 24.9513 35.7547 25.122 36.416 25.3566C37.0987 25.5913 37.728 25.922 38.304 26.3486C38.88 26.7753 39.3493 27.33 39.712 28.0126C40.0747 28.674 40.256 29.4953 40.256 30.4766C40.256 31.7566 40.0107 32.8446 39.52 33.7406C39.0507 34.6153 38.4 35.3193 37.568 35.8526C36.7573 36.386 35.8507 36.77 34.848 37.0046C33.8667 37.2393 32.864 37.3566 31.84 37.3566ZM46.291 37.2926C45.651 37.2926 45.0963 37.1113 44.627 36.7486C44.1577 36.386 43.923 35.7566 43.923 34.8606C43.923 33.9433 44.1577 33.314 44.627 32.9726C45.0963 32.6313 45.6617 32.4606 46.323 32.4606C46.963 32.4606 47.5177 32.6313 47.987 32.9726C48.4563 33.314 48.691 33.9433 48.691 34.8606C48.691 35.778 48.4563 36.418 47.987 36.7806C47.5177 37.122 46.9523 37.2926 46.291 37.2926Z" fill="#EBB723"/>
</svg>
