<svg width="73" height="48" viewBox="0 0 73 48" fill="none" xmlns="http://www.w3.org/2000/svg">
<path d="M73 47.5251C73 42.7318 72.0559 37.9855 70.2216 33.5571C68.3873 29.1288 65.6987 25.105 62.3094 21.7157C58.9201 18.3263 54.8963 15.6378 50.468 13.8035C46.0396 11.9692 41.2933 11.0251 36.5 11.0251C31.7068 11.0251 26.9604 11.9692 22.5321 13.8035C18.1037 15.6378 14.0799 18.3263 10.6906 21.7157C7.30126 25.105 4.61269 29.1288 2.7784 33.5571C0.9441 37.9855 -4.19039e-07 42.7318 0 47.5251H73Z" fill="#293F5F"/>
<path d="M36.561 5.64946C37.8616 4.89853 39.337 4.50319 40.8389 4.50319C42.3408 4.50319 43.8162 4.89853 45.1169 5.64946C46.4175 6.4004 47.4976 7.48048 48.2486 8.78115C48.9995 10.0818 49.3948 11.5572 49.3948 13.0591L40.8389 13.0591L36.561 5.64946Z" fill="#34BAB4" fill-opacity="0.8"/>
<path d="M25.0938 39.6892C21.6259 37.687 18.7461 34.8072 16.7439 31.3392C14.7417 27.8713 13.6876 23.9374 13.6876 19.933C13.6876 15.9285 14.7417 11.9947 16.7439 8.52672C18.7461 5.05878 21.6259 2.17897 25.0938 0.176758L36.5001 19.933L25.0938 39.6892Z" fill="#34BAB4" fill-opacity="0.8"/>
<path d="M57.5505 24.9981C57.4827 27.9256 56.6456 30.7836 55.1232 33.285C53.6008 35.7863 51.4468 37.8429 48.8776 39.2479C46.3085 40.653 43.4148 41.357 40.4874 41.2892C37.5599 41.2215 34.7019 40.3843 32.2005 38.8619L40.8734 24.6121L57.5505 24.9981Z" fill="#34BAB4" fill-opacity="0.8"/>
</svg>
